<svg width="254" height="33" viewBox="0 0 254 33" fill="none" xmlns="http://www.w3.org/2000/svg">
<path opacity="0.5" d="M16.0729 3.48975C23.2929 3.48975 29.1458 9.34269 29.1458 16.5627C29.1458 23.7826 23.2929 29.6356 16.0729 29.6356C8.85295 29.6356 3 23.7826 3 16.5627C3 9.34269 8.85295 3.48975 16.0729 3.48975Z" stroke="#CAE4F5" stroke-width="5.22917"/>
<path d="M149.417 3.48975C156.637 3.48975 162.49 9.34269 162.49 16.5627C162.49 23.7826 156.637 29.6356 149.417 29.6356C142.197 29.6356 136.344 23.7826 136.344 16.5627C136.344 9.34269 142.197 3.48975 149.417 3.48975Z" stroke="#CAE4F5" stroke-width="5.22917"/>
<path d="M183.406 3.48975C190.626 3.48975 196.479 9.34269 196.479 16.5627C196.479 23.7826 190.626 29.6356 183.406 29.6356C176.186 29.6356 170.333 23.7826 170.333 16.5627C170.333 9.34269 176.186 3.48975 183.406 3.48975Z" stroke="#CAE4F5" stroke-width="5.22917"/>
<path opacity="0.5" d="M64.7502 3.48975H43.5262C39.9162 3.48975 36.9897 6.41622 36.9897 10.0262V10.0262C36.9897 13.6362 39.9162 16.5627 43.5262 16.5627H56.5991C60.2091 16.5627 63.1356 19.4891 63.1356 23.0991V23.0991C63.1356 26.7091 60.2091 29.6356 56.5991 29.6356H35.9438" stroke="#CAE4F5" stroke-width="5.22917"/>
<path d="M252.5 3.48975H231.776C228.166 3.48975 225.24 6.41622 225.24 10.0262V10.0262C225.24 13.6362 228.166 16.5627 231.776 16.5627H244.849C248.459 16.5627 251.385 19.4891 251.385 23.0991V23.0991C251.385 26.7091 248.459 29.6356 244.849 29.6356H222.625" stroke="#CAE4F5" stroke-width="5.22917"/>
<path opacity="0.5" d="M70.979 0.875V16.5625C70.979 23.7825 76.8319 29.6354 84.0519 29.6354V29.6354C91.2719 29.6354 97.1248 23.7825 97.1248 16.5625V0.875" stroke="#CAE4F5" stroke-width="5.22917"/>
<path d="M102.354 3.48975H118.042M133.729 3.48975H118.042M118.042 3.48975V32.2502" stroke="#CAE4F5" stroke-width="5.22917"/>
<path d="M204.323 0.875V29.6354H220.01" stroke="#CAE4F5" stroke-width="5.22917"/>
</svg>
